<svg width="33" height="33" viewBox="0 0 33 33" fill="none" xmlns="http://www.w3.org/2000/svg">
<path d="M1.4572 11.7483C1.0119 12.1567 0.636173 12.6108 0.326052 13.0946C-0.151056 13.8421 -0.0456948 14.8216 0.59045 15.4402L7.40912 22.0824C8.01346 22.6713 8.95575 22.8081 9.66545 22.3501C10.0809 22.0824 10.4745 21.7632 10.8364 21.3944C13.4863 18.688 13.3829 14.3239 10.568 11.7463C8.02539 9.41856 3.99581 9.41657 1.4572 11.7483Z" fill="#2FAAE1"/>
<path d="M0.961055 12.6783C0.696657 12.9221 0.460091 13.1878 0.25732 13.4674C-0.15021 14.0265 -0.0607526 14.8038 0.434247 15.2856L6.60286 21.2953C7.19726 21.0376 7.75786 20.6569 8.23895 20.1652C10.2965 18.0634 10.2189 14.6789 8.03021 12.6763C6.05816 10.87 2.9331 10.866 0.961055 12.6783Z" fill="#F8BFD8"/>
<path d="M22.9392 25.821C22.4065 25.821 22.0248 25.6901 22.0148 25.6882C21.8598 25.6326 21.7783 25.4621 21.8339 25.3075C21.8896 25.1528 22.0586 25.0715 22.2136 25.127C22.2971 25.1568 24.1757 25.7774 25.1598 23.6737C25.2293 23.525 25.4063 23.4595 25.5554 23.5309C25.7045 23.6003 25.7681 23.7768 25.6985 23.9255C24.959 25.5077 23.7662 25.821 22.9392 25.821Z" fill="#2FAAE1"/>
<path d="M15.4863 13.3711C4.56052 11.8682 2.60437 22.6227 7.04943 31.5471C7.04943 31.5471 18.9433 30.7738 21.7424 28.8723C24.3108 27.1295 22.297 23.2988 21.5575 20.1938C20.7305 16.7141 19.6809 14.5687 16.4683 13.5992C16.2874 13.5436 15.5936 13.385 15.4863 13.3711Z" fill="#81CAEC"/>
<g clip-path="url(#clip0_2053_12267)">
<path d="M14.4583 18.0221C14.8678 18.0221 15.1998 17.691 15.1998 17.2825C15.1998 16.8741 14.8678 16.543 14.4583 16.543C14.0488 16.543 13.7168 16.8741 13.7168 17.2825C13.7168 17.691 14.0488 18.0221 14.4583 18.0221Z" fill="#264B5F"/>
<path d="M14.379 17.2251C14.514 17.1474 14.5643 16.9821 14.4912 16.856C14.4182 16.7299 14.2496 16.6907 14.1146 16.7684C13.9796 16.8462 13.9293 17.0114 14.0023 17.1375C14.0753 17.2637 14.244 17.3029 14.379 17.2251Z" fill="white"/>
</g>
<g clip-path="url(#clip1_2053_12267)">
<path d="M8.69365 18.2204C9.10318 18.2204 9.43516 17.8892 9.43516 17.4808C9.43516 17.0723 9.10318 16.7412 8.69365 16.7412C8.28413 16.7412 7.95215 17.0723 7.95215 17.4808C7.95215 17.8892 8.28413 18.2204 8.69365 18.2204Z" fill="#264B5F"/>
<path d="M8.61433 17.4234C8.74934 17.3456 8.7996 17.1804 8.72659 17.0542C8.65358 16.9281 8.48494 16.8889 8.34993 16.9666C8.21492 17.0444 8.16466 17.2097 8.23767 17.3358C8.31068 17.4619 8.47932 17.5011 8.61433 17.4234Z" fill="white"/>
</g>
<path d="M6.28167 32.6814L5.71709 32.3641C4.87818 31.8942 4.578 30.8255 5.04914 29.9888L5.32944 29.4931C5.80059 28.6564 6.8721 28.357 7.71101 28.8269L8.27559 29.1441C9.1145 29.614 9.41469 30.6827 8.94354 31.5195L8.66324 32.0152C8.1921 32.8519 7.12059 33.1513 6.28167 32.6814Z" fill="#81CAEC"/>
<path d="M24.2327 30.0875L23.7317 30.498C22.9862 31.1067 21.879 30.9956 21.2687 30.2541L20.9069 29.8139C20.2966 29.0704 20.4079 27.966 21.1514 27.3573L21.6523 26.9468C22.3978 26.3381 23.5051 26.4492 24.1154 27.1907L24.4772 27.6309C25.0875 28.3744 24.9782 29.4788 24.2327 30.0875Z" fill="#81CAEC"/>
<path d="M31.4258 15.7402C31.6365 16.3053 31.7677 16.8803 31.8253 17.4513C31.9128 18.3337 31.3741 19.1585 30.5272 19.4242L21.4343 22.2754C20.6292 22.5272 19.7267 22.2258 19.2992 21.4982C19.0488 21.0719 18.842 20.6099 18.6889 20.1182C17.5518 16.5095 19.6213 12.663 23.299 11.6319C26.6209 10.702 30.2171 12.5163 31.4258 15.7402Z" fill="#2FAAE1"/>
<path d="M31.444 16.7933C31.5693 17.1303 31.6587 17.4734 31.7144 17.8144C31.8237 18.4965 31.3923 19.1508 30.7323 19.357L22.5062 21.9365C22.0927 21.4389 21.7647 20.846 21.5579 20.1917C20.6753 17.3901 22.2776 14.4041 25.1363 13.605C27.7166 12.8833 30.5077 14.2891 31.444 16.7933Z" fill="#F8BFD8"/>
<path d="M12.6789 21.5107C12.4404 21.5107 12.2078 21.4492 11.9971 21.3283C11.8539 21.245 11.8062 21.0646 11.8897 20.9218C11.9732 20.7791 12.1541 20.7315 12.2972 20.8147C12.5974 20.9892 12.9056 20.9 13.0626 20.8326C13.333 20.7156 13.5258 20.5054 13.5556 20.3706C13.5914 20.21 13.7524 20.1089 13.9115 20.1466C14.0725 20.1822 14.1719 20.3428 14.1361 20.5015C14.0586 20.8405 13.7226 21.1935 13.2992 21.3759C13.0944 21.4671 12.8837 21.5107 12.6789 21.5107Z" fill="#C96C70"/>
<path d="M13.2213 25.3607C10.629 25.6978 9.58532 23.8419 9.45411 23.3641C9.28315 22.7355 9.35471 22.0951 9.60917 21.6133C9.73243 21.3813 10.0008 21.0799 10.1439 20.9788C10.6012 20.6497 11.118 20.6477 11.5375 20.1302C12.0643 19.4799 12.0981 18.3874 11.4341 17.8758C11.2612 17.6617 11.0147 17.4991 10.6767 17.4317C9.10026 17.1184 7.57152 18.5361 6.92742 19.8784C6.34694 21.0879 6.18989 22.5452 6.72664 23.7785C8.19176 27.1412 11.947 27.3712 14.0522 26.7467C14.3922 26.6455 13.3545 25.3429 13.2213 25.3607Z" fill="#2FAAE1"/>
<path d="M12.4521 25.3528L13.9133 27.3871C14.0524 27.5814 14.3267 27.627 14.5236 27.4882L14.5315 27.4823C14.7263 27.3435 14.7721 27.0699 14.6329 26.8736L13.1718 24.8392C13.0326 24.6449 12.7583 24.5993 12.5615 24.7401L12.5535 24.7461C12.3567 24.8848 12.311 25.1585 12.4521 25.3528Z" fill="#2FAAE1"/>
<path d="M21.0703 25.8777C21.122 25.62 21.8993 24.2221 21.8993 24.2221C21.8993 24.2221 22.4837 23.661 22.764 24.6623C22.9569 25.3543 24.1158 27.1903 24.1158 27.1903L23.7699 27.9636L21.5355 28.3602L20.291 26.5102L21.0703 25.8777Z" fill="#81CAEC"/>
<path d="M8.53193 28.13C8.51603 28.1003 8.44247 28.0567 8.32916 28.0031C7.6453 27.6839 5.47844 27.097 5.69314 27.7652C5.94362 28.5444 5.14844 29.8075 5.14844 29.8075L8.5697 32.1808C8.84404 31.8001 9.2456 31.3738 9.6094 31.3362C9.98512 31.2965 9.48615 28.8042 9.48615 28.8042" fill="#81CAEC"/>
<defs>
<clipPath id="clip0_2053_12267">
<rect width="1.485" height="1.48112" fill="white" transform="translate(13.7168 16.543)"/>
</clipPath>
<clipPath id="clip1_2053_12267">
<rect width="1.485" height="1.48112" fill="white" transform="translate(7.95215 16.7412)"/>
</clipPath>
</defs>
</svg>
